<svg xmlns="http://www.w3.org/2000/svg" xmlns:xlink="http://www.w3.org/1999/xlink" version="1.1" x="0px" y="0px" viewBox="0 0 256 320" style="enable-background:new 0 0 256 256;" xml:space="preserve"><title>Carpenter Line</title><path d="M235.991,108.506c4.157-4.169,4.157-10.915,0-15.084c0,0-6.866-7.047-15.086,0l-0.839,0.84l-5.828-3.649V61.938  c0-5.454-4.421-9.875-9.875-9.875s-9.875,4.421-9.875,9.875v7.449H189c1.926-5.564-1.023-11.636-6.587-13.563  c-3.859-1.336-8.142-0.35-11.029,2.538l-11.025,11.024h-30.217V26.056c0-1.657-1.343-3-3-3H97.565c-1.657,0-3,1.343-3,3v43.332  H75.039L65.22,32.741c-0.426-1.599-2.068-2.549-3.667-2.123c-0.002,0.001-29.197,7.823-29.197,7.823  c-1.6,0.429-2.55,2.074-2.121,3.674l2.667,9.955c-0.043,0-9.152-0.257-10.001,9.869v91.428c-3.198,2.655-5.048,6.596-5.048,10.752  v10.702c0,7.138,5.147,10.847,5.147,10.847s-5.292,4.167-5.148,10.887v26.526c0.009,7.728,6.272,13.991,14,14h173.434  c7.728-0.009,13.991-6.272,14-14v-26.526c0.339-6.366-5.119-10.887-5.119-10.887c3.521-3.042,5.12-6.69,5.119-10.847v-10.702  c0-4.156-1.85-8.097-5.048-10.752v-23.108L235.991,108.506z M200.488,61.938c0-2.14,1.735-3.875,3.875-3.875  s3.875,1.735,3.875,3.875v24.918l-7.75-4.852V61.938z M194.488,75.388v2.861l-4.57-2.861H194.488z M175.627,62.605  c1.824-1.82,4.778-1.818,6.598,0.006c1.818,1.822,1.818,4.771,0,6.592l-2.529,2.529c-1.172,1.172-1.172,3.071,0,4.243  c0.68,0.649,39.212,24.639,39.212,24.639c1.185,0.741,2.725,0.566,3.714-0.422l2.527-2.528c1.822-1.823,4.777-1.823,6.599-0.001  s1.823,4.777,0.001,6.599l-25.609,25.607l-35.226-4.054l-29.25-29.25L175.627,62.605z M213.286,198.187  c-0.427-1.107-1.467-1.857-2.651-1.915c-0.32-0.015-32.183-1.539-48.149-3.188c-8.48-0.875-20.293-2.525-31.849-4.265h74.65  c5.026-0.195,7.995,3.941,8,7.733L213.286,198.187z M213.286,164.416c-0.453-1.22-1.647-2.004-2.946-1.935  c-31.527,1.611-83.98,2.593-90.504-1.632c-0.597-0.35-1.132-0.797-1.584-1.321c0.85-1.012,4.873-2.716,8.136-3.41h78.898  C213.49,156.561,213.392,164.541,213.286,164.416z M119.288,110.564c-2.877,2.578-4.165,6.493-3.38,10.275l1.96,19.104h-11.029  l1.96-19.104c0.785-3.783-0.503-7.697-3.38-10.275H119.288z M110.037,104.564V40.121h4.633v64.443H110.037z M105.888,145.945h12.932  v4.174h-12.932L105.888,145.945z M179.746,150.118l1.621-4.592l5.885,0.594c1.376,0.139,2.669-0.681,3.131-1.985l1.971-5.579  l2.135,0.215v11.347H179.746z M208.238,150.438c-0.97-0.211-1.96-0.318-2.952-0.32h-4.798V138.44c0.4-0.34,0.704-0.78,0.88-1.275  l0.613-1.732l4.913,0.566c0.481,0.127,1.024-0.046,1.345-0.164L208.238,150.438z M130.142,75.388h24.217l-10.5,10.5h-13.717  L130.142,75.388z M130.142,91.888h7.717l-7.717,7.717V91.888z M130.083,108.148l7.338-7.338l29.99,29.989  c0.478,0.479,1.105,0.782,1.778,0.859l18.552,2.135c-0.105,0.171-2.232,6.12-2.232,6.12l-5.885-0.594  c-1.377-0.143-2.673,0.679-3.131,1.985l-1.969,5.576l-5.886-0.594c-1.376-0.138-2.669,0.682-3.13,1.986l-0.651,1.844h-40.039v-7.174  c-0.001-0.765-0.295-1.5-0.823-2.054l-2.136-20.829c-0.36-1.5-0.173-3.438,1.431-5.029l5.771-5.096  C129.063,109.938,129.854,109.234,130.083,108.148z M120.67,38.25l3.472-4.217v70.532h-3.472V38.25z M120.467,29.056l-4.09,4.968  h-8.047l-4.09-4.968H120.467z M100.565,34.033l3.472,4.217v66.315h-3.472V34.033z M95.566,109.801l5.849,5.231  c1.523,1.405,1.773,3.249,1.433,5.03l-0.781,7.618l-8.996,8.996L81.068,91.888h13.497v15.677  C94.565,107.564,94.563,108.875,95.566,109.801z M101.096,137.135l-0.386,3.755c-0.527,0.554-0.822,1.289-0.823,2.054v7.174h-3.216  l-1.809-6.75L101.096,137.135z M94.566,75.388v10.5H79.46l-2.813-10.5H94.566z M60.201,37.191l1.606,5.994l-6.82,1.827  c-1.607,0.405-2.581,2.036-2.176,3.642s2.036,2.581,3.642,2.176c0.029-0.007,6.906-1.851,6.906-1.851l1.286,4.8l-4.364,1.17  c-1.607,0.405-2.581,2.035-2.177,3.642c0.405,1.607,2.035,2.581,3.642,2.177c0.029-0.007,4.452-1.194,4.452-1.194l1.286,4.8  l-6.82,1.828c-1.607,0.405-2.581,2.035-2.177,3.642c0.405,1.607,2.035,2.581,3.642,2.177c0.029-0.007,6.908-1.851,6.908-1.851  l1.286,4.799l-4.363,1.168c-1.607,0.404-2.581,2.035-2.177,3.642c0.404,1.607,2.035,2.581,3.642,2.177  c0.029-0.007,4.451-1.193,4.451-1.193l1.286,4.8l-6.821,1.827c-1.607,0.404-2.581,2.035-2.177,3.642  c0.404,1.607,2.035,2.581,3.642,2.177c0.029-0.007,6.909-1.851,6.909-1.851l1.286,4.8l-4.364,1.169  c-1.607,0.404-2.581,2.035-2.177,3.642s2.035,2.581,3.642,2.177c0.029-0.007,4.451-1.193,4.451-1.193l1.286,4.8l-6.82,1.827  c-1.607,0.404-2.581,2.035-2.177,3.642s2.035,2.581,3.642,2.177c0.029-0.007,6.909-1.851,6.909-1.851l1.286,4.8l-4.364,1.169  c-1.607,0.404-2.581,2.035-2.177,3.642s2.035,2.581,3.642,2.177c0.029-0.007,4.451-1.193,4.451-1.193l1.286,4.8l-6.821,1.828  c-1.607,0.405-2.581,2.035-2.177,3.642s2.035,2.581,3.642,2.177c0.029-0.007,6.908-1.851,6.908-1.851l1.286,4.799l-4.363,1.17  c-1.607,0.405-2.581,2.035-2.177,3.642s2.035,2.581,3.642,2.177c0.029-0.007,4.451-1.193,4.451-1.193l1.286,4.8l-3.683,0.987H65.385  l-4.41-16.459l5.91-1.583c1.594-0.453,2.518-2.112,2.065-3.706c-0.443-1.56-2.046-2.485-3.618-2.089l-5.91,1.583l-5.451-20.342  l5.911-1.583c1.607-0.405,2.581-2.035,2.177-3.642c-0.405-1.607-2.035-2.581-3.642-2.177c-0.029,0.007-0.059,0.015-0.088,0.024  l-5.911,1.583l-5.451-20.342l5.911-1.584c1.607-0.405,2.581-2.035,2.177-3.642c-0.405-1.607-2.035-2.581-3.642-2.177  c-0.029,0.007-5.999,1.607-5.999,1.607l-5.45-20.342l5.91-1.584c1.606-0.406,2.579-2.038,2.173-3.644  c-0.406-1.606-2.038-2.579-3.644-2.173c-0.027,0.007-5.991,1.606-5.991,1.606l-1.607-5.994L60.201,37.191z M59.174,150.118H42.65  v-58.23h0.92L59.174,150.118z M28.9,61.938c0.002-2.139,1.736-3.873,3.875-3.875c0.655,0.004,1.297,0.176,1.867,0.5l2.008,7.496  v84.058h-4.798c-0.993,0.002-1.982,0.109-2.952,0.32L28.9,61.938z M23.852,164.118c0.005-4.416,3.584-7.995,8-8h81.486  c-0.55,0.717-0.926,1.553-1.098,2.44c-0.486,2.684,0.972,5.148,4.334,7.326c4.824,3.125,23.396,4.015,42.979,4.015  c21.314,0,43.828-1.055,51.094-1.426c1.18-0.061,2.214-0.811,2.64-1.914v8.26c-0.005,4.416-3.584,7.995-8,8H31.853  c-4.416-0.005-7.995-3.584-8-8L23.852,164.118z M23.852,196.554c0.005-3.793,2.643-6.99,6.356-7.762  c0.537,0.065,7.968,0.029,7.968,0.029c-1.235,0.903-2.298,2.021-3.138,3.299c-1.449,2.209-1.607,5.024-0.415,7.381  c1.921,3.918,6.93,5.687,11.884,6.445c3.367,0.555,11.567,0.622,13.247,0.492c8.006-0.618,10.526-3.849,11.265-8.2  c0.447-3.889-2.295-7.422-6.173-7.955c-1.643-0.213-3.148,0.946-3.361,2.59c-0.213,1.643,0.946,3.148,2.59,3.361  c0.66,0.123,1.095,0.757,0.974,1.417c-0.111,1.13-1.882,2.517-5.382,2.684c-1.259,0.118-7.917,0.167-11.094-0.155  c-12.239-1.845-8.064-5.424-7.778-5.717c5.456-4.629,13.152-5.61,13.313-5.641h38.48c9.363,1.574,48.842,8.125,69.283,10.233  c16.129,1.665,48.158,3.197,48.48,3.213c0.049,0.002,0.097,0.003,0.145,0.003c1.244-0.004,2.355-0.777,2.792-1.941v14.158  c-10.574-1.294-22.384-3.761-34.888-6.373c-29.831-6.231-60.681-12.674-84.121-5.711c-24.051,7.146-55.717,9.088-70.425,9.613  L23.852,196.554z M31.852,231.08c-2.037-0.001-3.997-0.782-5.476-2.183c13.653,1.461,38.877,0.462,64.544-2.683  c33.888-4.153,51.981-4.808,66.762-2.414c15.865,2.567,22.757,4.77,27.801,7.28L31.852,231.08z M213.286,223.08  c-0.005,4.416-3.584,7.995-8,8h-7.835c-1.203-0.695-2.3-1.359-3.358-2.004c-7.1-4.319-12.229-7.441-35.451-11.199  c-15.393-2.492-33.944-1.848-68.451,2.382c-30.645,3.756-56.085,3.969-66.338,2.247v-4.486c14.869-0.524,47.32-2.492,72.134-9.865  c21.988-6.534,53.436,0.035,81.186,5.832c24.162,5.347,36.079,6.576,36.079,6.576L213.286,223.08z"/><path d="M156.663,102.145l36.151,22.411c1.184,0.734,2.717,0.556,3.702-0.429l14.097-14.096c1.172-1.171,1.387-3.469-0.54-4.671  L173.921,82.95c-1.184-0.734-2.717-0.557-3.702,0.429l-14.096,14.096C155.475,98.122,154.313,100.5,156.663,102.145z   M203.694,108.466l-3.206,3.205v-5.193L203.694,108.466z M170.195,91.888h6.755l17.538,10.872v14.911l-0.533,0.533L163.042,99.04  L170.195,91.888z"/><path d="M94.822,174.222c26.038,5.163,51.13,5.859,72.241,5.859c1.657,0,3-1.343,3-3s-1.343-3-3-3  c-20.82,0-45.546-0.683-71.075-5.744c-26.692-5.294-59.108-3.017-60.476-2.917c-1.653,0.12-2.895,1.557-2.774,3.21  c0.12,1.653,1.557,2.895,3.21,2.774C35.948,171.404,68.938,169.089,94.822,174.222z"/><text x="0" y="271" fill="#000000" font-size="5px" font-weight="bold" font-family="'Helvetica Neue', Helvetica, Arial-Unicode, Arial, Sans-serif">Created by nuengrutai</text><text x="0" y="276" fill="#000000" font-size="5px" font-weight="bold" font-family="'Helvetica Neue', Helvetica, Arial-Unicode, Arial, Sans-serif">from the Noun Project</text></svg>